<svg xmlns="http://www.w3.org/2000/svg" xmlns:xlink="http://www.w3.org/1999/xlink" version="1.1" x="0px" y="0px" viewBox="0 0 100 125" enable-background="new 0 0 100 100" xml:space="preserve"><path d="M55.4135742,26.5454102c0.3618164-0.1796875,0.8320313-0.5712891,1.0175781-1.4150391  c0.0087891-0.0405273,0.0146484-0.0820313,0.0166016-0.1235352c0.0112305-0.2226563,0.0268555-1.3613281-0.7670898-1.9384766  c-0.1450195-0.1055298-0.3470459-0.1990967-0.5933838-0.2498169c-0.1395874-0.4034424-0.4000244-0.8956299-0.899292-1.2262573  c-0.3979492-0.2636719-1.0849609-0.5058594-2.1069336-0.1757813c-0.394043,0.1274414-0.6103516,0.5498047-0.4833984,0.9443359  c0.1274414,0.3935547,0.5493164,0.6103516,0.9443359,0.4833984c0.3637695-0.1176758,0.6376953-0.1191406,0.8139648-0.003418  c0.1155396,0.0749512,0.1957397,0.2036743,0.2571411,0.3359985c-0.164856,0.2009277-0.2304688,0.4754028-0.1316528,0.7357788  c0.1479492,0.3881836,0.5834961,0.5830078,0.9672852,0.4350586c0.2548828-0.097168,0.3481445-0.0673828,0.3496094-0.0664063  c0.0693359,0.0478516,0.1494141,0.3334961,0.1518555,0.5917969c-0.0463867,0.1733398-0.1142578,0.2836914-0.2021484,0.328125  c-0.190918,0.0961914-0.5732422,0.0117188-0.7714844-0.0761719c-0.3769531-0.1694336-0.8178711-0.0053711-0.9912109,0.3691406  c-0.1733398,0.3759766-0.0092773,0.8212891,0.3671875,0.9951172c0.0020752,0.0009766,0.0114746,0.0046387,0.0141602,0.0058594  c0.0280151,0.1192017,0.0748291,0.2346802,0.1625977,0.3320313c1.1582031,1.2822266,0.078125,4.6503906-0.4663086,5.9223633  c-0.4077148,0.359375-0.8359375,0.527832-1.3344727,0.512207c-1.3598633-0.0410156-2.6499023-1.434082-2.6630859-1.4477539  c-0.2788086-0.3051758-0.7524414-0.3271484-1.0585938-0.0488281c-0.3056641,0.2783203-0.3291016,0.7509766-0.0512695,1.0576172  c0.0693359,0.0761719,1.7211914,1.8730469,3.7202148,1.9379883c0.0380859,0.0014648,0.0766602,0.0019531,0.1147461,0.0019531  c0.8989258,0,1.7124023-0.3461914,2.418457-1.0302734c0.0673828-0.0654297,0.1220703-0.1430664,0.1611328-0.2290039  c0.1633301-0.3605957,1.1344604-2.6044922,1.1727295-4.7469482c0.0219116,0.0007324,0.0414429,0.0062256,0.0635986,0.0062256  c0.2202148,0,0.4516602-0.0361328,0.6777344-0.1308594c0.3222656-0.1357422,0.7475586-0.4428711,0.9428711-1.1362305  c0.112793-0.3984375-0.1196289-0.8129883-0.5180664-0.925293c-0.3955078-0.1123047-0.8125,0.1196289-0.925293,0.5180664  c-0.0268555,0.0942383-0.0605469,0.1518555-0.0805664,0.1606445c-0.0636597,0.0262451-0.194397,0.0089111-0.329834-0.0272217  c-0.0550537-0.2041016-0.1275024-0.4000244-0.2139282-0.5892334C55.2443848,26.6053467,55.3299561,26.5869751,55.4135742,26.5454102  z"/><path d="M48.7583008,27.5454102c-0.0898438,0.0078125-0.2109375-0.0024414-0.2885742-0.0214844  c-0.0629883-0.3662109-0.387207-0.6342773-0.7714844-0.621582c-0.4140625,0.0180664-0.7348633,0.3681641-0.7172852,0.7817383  c0.0166016,0.3847656,0.1738281,0.7167969,0.4545898,0.9599609c0.3979492,0.3442383,0.9335938,0.402832,1.2529297,0.402832  c0.109375,0,0.1928711-0.0068359,0.237793-0.0112305c0.7529297-0.1005859,1.1328125-0.5004883,1.3183594-0.8188477  c0.0585938-0.1002197,0.1026611-0.2041626,0.1387329-0.309082c0.1422119,0.0228271,0.2902222,0.0410156,0.4442749,0.0410156  c0.3242188,0,0.6640625-0.0639648,0.972168-0.2456055c0.371582-0.2202148,0.8251953-0.6884766,0.8735352-1.6723633  c0.0205078-0.4140625-0.2983398-0.765625-0.7119141-0.7861328c-0.4189453-0.0234375-0.7661133,0.2988281-0.7861328,0.7119141  c-0.0117188,0.2368164-0.0649414,0.4106445-0.1386719,0.4550781c-0.1176147,0.0703125-0.3966675,0.0391235-0.6627808-0.038147  c-0.0430298-0.1555786-0.0861206-0.2728882-0.1082153-0.328064c-0.1533203-0.3833008-0.5864258-0.5688477-0.9707031-0.4169922  c-0.3837891,0.1513672-0.5727539,0.5864258-0.4233398,0.9711914c0.1098633,0.2827148,0.1665039,0.7109375,0.078125,0.8608398  C48.9169922,27.515625,48.796875,27.5395508,48.7583008,27.5454102z"/><path d="M68.8969727,50.2822266c-0.0317383-0.2036133-0.1464844-0.387207-0.3193359-0.5048828  c-1.328125-0.9023438-2.6196289-0.4472656-3.4018555,0.1240234c-1.2285156-0.6494141-3.0009766-0.7861328-3.8896484-0.8120117  l-0.2045898-0.5l0.2797852-0.3417969c0.159668-0.1953125,0.2104492-0.4575195,0.1357422-0.6977539l-2.625-8.4375  c-0.0229492-0.0742188-0.0576172-0.144043-0.1020508-0.2075195c-1.4140625-2.0200195-4.1279297-3.2636719-4.2426758-3.3154297  c-0.097168-0.0439453-0.2026367-0.0668945-0.309082-0.0668945c-1.1103516,0-2.5976563,1.0263672-3.4892578,1.7324219  c-1.2269287-1.9164429-2.6813354-3.0175781-3.847229-3.6469727c0.0092163-0.1156616,0.0003052-0.2333374-0.0477905-0.3476563  c-0.3569336-0.8500977,0.4086914-1.7099609,0.4130859-1.7148438c0.1381836-0.1484375,0.2099609-0.3457031,0.2001953-0.5478516  s-0.1010742-0.3916016-0.2524414-0.5253906c-0.9776611-0.8638916-0.9213867-1.7112427-0.7763062-2.1858521  c0.3487549-0.2185059,0.4569702-0.6775513,0.2401733-1.0285034c-0.1079102-0.175293-0.2231445-0.418457-0.1577148-0.5839844  c0.0898438-0.2260742,0.4956055-0.4291992,0.7373047-0.4941406c0.2700195-0.0683594,0.4794922-0.28125,0.5444336-0.5517578  c0.1220703-0.5102539,0.3251953-0.8466797,0.6040039-0.9990234c0.1395264-0.0773315,0.286377-0.0970459,0.423645-0.1009521  c0.0825806,0.1152344,0.1872559,0.2159424,0.3297729,0.2703857c0.0878906,0.0341797,0.1787109,0.0498047,0.2680664,0.0498047  c0.3017578,0,0.5859375-0.1831055,0.7001953-0.4819336c0.0922852-0.2407227,0.1845703-0.3232422,0.2207031-0.3330078  c0.1005859-0.027832,0.3422852,0.0795898,0.4799805,0.1875c0.3208008,0.2578125,0.7895508,0.2089844,1.0512695-0.1098633  c0.2617188-0.3208008,0.2143555-0.793457-0.1064453-1.0556641c-0.090332-0.0737305-0.9052734-0.7128906-1.8100586-0.4716797  c-0.2233276,0.0594482-0.4916382,0.2016602-0.743042,0.4613037c-0.4019165-0.0500488-0.9576416-0.0383911-1.510376,0.2554932  c-0.5791016,0.3081055-0.9985352,0.8374023-1.2509766,1.5761719c-0.4291992,0.1850586-1.0556641,0.559082-1.328125,1.2333984  c-0.12854,0.3175659-0.2073364,0.7891846,0.00177,1.3779297c-0.3711548,0.8514404-0.5361938,2.2836304,0.6110229,3.6254883  c-0.2550659,0.434021-0.5172729,1.0761108-0.4793701,1.8110352c-0.1858521-0.0535889-0.3286743-0.0869141-0.4039307-0.1020508  c-0.6450195-0.206543-4.6420898-1.4799805-5.6542969-1.6064453c-0.0656738-0.0076294-0.1287842,0.0092163-0.1929932,0.0181274  c-0.8689575-0.5007324-2.171936-0.9660645-2.9769287-1.2285767c0.1362305-2.34375-1.4228516-6.0283203-1.8081055-6.8979492  c-0.0090332-0.1538696-0.0319214-0.3083496-0.0605469-0.461731c0.8580933,0.1856689,1.6386108,0.1329346,1.8564453,0.1106567  c3.3647461,0.0551758,4.4624023,1.043457,4.4633789,1.043457c0.1450195,0.1503906,0.3413086,0.2294922,0.5405273,0.2294922  c0.1176758,0,0.2368164-0.027832,0.3466797-0.0854492l0.9541016-0.4985352  c0.2753906-0.1435547,0.4335938-0.4423828,0.3979492-0.7509766c-0.2114258-1.8251953-1.9414063-2.6513672-3.2202148-3.0151367  c0.2329102-0.519043,0.3579102-1.125,0.4238281-1.6621094c0.8579102,0.034668,1.5366211-0.6865234,1.6630859-0.831543  c0.1186523-0.1362305,0.184082-0.3110352,0.184082-0.4921875v-4.5268555c0-0.0966797-0.0185547-0.1923828-0.0546875-0.2817383  l-0.3037109-0.7490234c0.4291992-3.7255859-2.2495117-5.2675781-3.7529297-5.5629883  C37.3125,5.5053711,36.9736328,5.6757813,36.8256836,5.9838867s-0.0688477,0.6772461,0.1923828,0.8979492  c1.2426758,1.0483398,0.652832,2.3164063,0.3295898,2.828125c-0.7421875,0.1645508-1.3398438,0.5615234-1.7426758,1.1611328  c-1.0180664,1.515625-0.4936523,3.831543-0.3730469,4.2983398c0.1552734,1.3583984-0.1386719,1.6147461-0.1420898,1.6171875  c-0.0302734,0.0205078-0.1645508,0.0053711-0.2480469-0.0322266c-0.0429688-0.0214844-0.0878906-0.0385742-0.1337891-0.0512695  c-2.1108398-0.5893555-1.1640625-4.2387695-1.1484375-4.2998047c0.0927734-0.3989258,0.5620117-0.6064453,0.5615234-0.6064453  c0.3178711-0.1279297,0.5083008-0.4560547,0.4624023-0.7958984l-0.3325195-2.4628906  c-0.0229492-0.1713867-0.1049805-0.3295898-0.2314453-0.4477539c-0.5327148-0.4975586-0.7451172-1.8120117-0.7592773-2.5766602  c0.4873047-2.5336914-1.1640625-2.9770508-1.2797852-3.0043945c-0.0976563-0.0185547-0.9770508-0.1591797-1.7739258,0.4516602  c-0.6469727,0.496582-1.0200195,1.3120117-1.1049805,2.3959961c-0.0014648,0.0126953-0.1689453,1.3081055-1.0585938,1.5620117  c-0.2163086,0.0620117-0.3930664,0.2172852-0.4824219,0.4233398l-1.0654297,2.4628906  c-0.0091553,0.0213013-0.0028687,0.0447998-0.0099487,0.0665894c-0.0263062,0.0792236-0.0383301,0.159668-0.0367432,0.2454224  c0.0007324,0.0393677,0.0009155,0.0750122,0.0077515,0.1137695c0.0040894,0.0233154-0.0015869,0.0460205,0.0047607,0.0693359  c0.0184326,0.0670166,0.0562744,0.121582,0.090332,0.1785278c0.0117798,0.0200195,0.0106812,0.0446167,0.0244141,0.0636597  c0.4711914,0.6533203,1.5874023,2.6391602,1.1020508,3.9619141c-0.0339966,0.0928345-0.0459595,0.1879272-0.0430908,0.2810669  c-0.0357666,0.0217896-0.0780029,0.0296631-0.1121826,0.0548706c-0.8193359,0.6035156-0.652832,1.8134766-0.621582,1.9560547  c0.1254883,2.5839844,2.3476563,6.0869141,2.9267578,6.9594727l0.0009766,4.5322266  c-0.0722656,5.7441406,2.8945313,6.9023438,2.9604492,6.9238281c0.824585,0.3883667,3.1281128,1.5821533,4.2578735,2.1702881  c0.0015259,0.0253296-0.0105591,0.0490112-0.0064087,0.0743408c0.0561523,0.3413086,1.4345703,8.3979492,6.8232422,11.2890625  c0.0750122,0.0406494,0.1578369,0.0579224,0.2405396,0.0710449c-0.1566162,0.0599365-0.3099365,0.1339722-0.4539185,0.239502  c-0.7563477,0.3168945-5.5112305,2.3549805-7.7026367,4.3725586c-0.1005859,0.0776367-2.4633789,1.9321289-2.5991211,4.7548828  c-0.0029297,0.0180664-0.3178711,1.8535156-4.1376953,3.2592773c-0.152832,0.0561523-3.7426758,1.4121094-3.7426758,5.2670898  c0,0.21875,0.0952148,0.4262695,0.2612305,0.5688477c0.1665039,0.1425781,0.3857422,0.2055664,0.6015625,0.1723633  c0.0610352-0.0092773,6.0537109-0.8618164,8.4677734,3.909668c0.1137695,0.2250977,0.3325195,0.3774414,0.5830078,0.4067383  c0.0288086,0.003418,0.0576172,0.0048828,0.0864258,0.0048828c0.2197266,0,0.4306641-0.0966797,0.5737305-0.2670898  c0.1020508-0.1211548,1.3433228-1.6203613,2.6503296-4.1209106c0.6660767,0.2791138,1.7944336,0.7080688,3.2573853,1.1206055  c0.1797485,0.8678589,0.8147583,3.6098022,2.2104492,6.6150513c-0.1837158,0.8980103-0.6550293,3.8182373,0.3223267,6.0955811  c-0.3035278,0.1021729-0.604126,0.2680054-0.8320923,0.5465088c-0.2539063,0.3105469-0.4995117,0.8618164-0.2290039,1.7231445  c0.0336914,0.1069336,0.0908203,0.2050781,0.1674805,0.2871094c0.984375,1.0532227,1.9077148,2.2817383,1.9731445,2.6083984  c0.1992188,1.4326172,0.4760742,3.8964844,0.4052734,4.6494141c-0.1923828,0.4656982-0.7994995,2.0978394-0.682312,3.5478516  h-9.4612427c-0.4140625,0-0.75,0.3359375-0.75,0.75s0.3359375,0.75,0.75,0.75h10.2056885  c0.4981689,0.2619019,1.1847534,0.5043945,1.895874,0.5043945c0.3495483,0,0.7000732-0.0671387,1.0331421-0.2103882  c0.0723877,0.086792,0.1430664,0.1750488,0.2251587,0.2533569c0.7749023,0.7392578,1.7875977,0.8935547,2.4931641,0.8935547  c0.496582,0,0.8408203-0.0761719,0.8427734-0.0786133c1.2011719-0.1396484,1.7407227-0.7592773,1.9824219-1.2548828  c0.0168457-0.0346069,0.0266113-0.0720215,0.0415649-0.1074219h9.9164429c0.4140625,0,0.75-0.3359375,0.75-0.75  s-0.3359375-0.75-0.75-0.75h-9.7435303c-0.1617432-1.4946899-1.0622559-3.0206299-1.1710205-3.1914063  c-0.2568359-0.5625,0.2504883-3.4223633,0.902832-5.8583984c1.5932617-1.1088867,1.3476563-2.8227539,0.9707031-3.6098633  c-0.0673828-0.1407471-0.1795044-0.2408447-0.3058472-0.3140259c0.3792114-1.802002-0.0352173-4.7518921-0.2566528-6.0609741  c1.1019287-2.1054077,2.1548462-6.0784912,2.3453369-6.8165283c0.9231567-0.2602539,1.8534546-0.5829468,2.7866211-0.9753418  c0.1745605,1.2765503,0.2678833,2.6572876,0.2889404,3.6673584c0.0063477,0.2900391,0.1791992,0.5507813,0.4443359,0.6694336  c0.0981445,0.043457,0.2021484,0.0649414,0.3056641,0.0649414c0.1762695,0,0.3505859-0.0620117,0.4892578-0.1811523  c3.5439453-3.0483398,8.6748047-3.3974609,8.7260742-3.4008789c0.3198242-0.0195313,0.5917969-0.2402344,0.6772461-0.5488281  c0.0849609-0.3085938-0.034668-0.637207-0.2988281-0.8183594c-1.800293-1.234375-4.5517578-5.9560547-5.449707-7.6508789  c-0.9742432-1.9848633-2.1488037-3.6405029-3.3234253-5.000061c0.5466309-0.1053467,1.1478882-0.170166,1.576355-0.1986694  c0.1047363,0.1342163,0.2111816,0.2519531,0.3166504,0.3792114c0.072998,0.1044922,0.1500854,0.2005005,0.2307129,0.2799683  c0.0020752,0.0020142,0.0048828,0.0025635,0.006958,0.0045776c1.7208862,1.980835,3.5377808,3.0545654,5.414917,3.177063  c0.121582,0.0078125,0.2407227,0.0117188,0.3579102,0.0117188c2.3598633,0,3.8759766-1.53125,3.9472656-1.6044922  c0.909668-0.9545898,0.9116211-1.8481445,0.7539063-2.4296875C73.8916016,52.1108398,70.3217773,50.7495117,68.8969727,50.2822266z   M28.8100586,8.2319336c1.5400391-0.690918,1.7724609-2.6201172,1.7841797-2.7294922  c0.0512695-0.6503906,0.2285156-1.1137695,0.512207-1.3413086C31.3081055,4,31.5664063,3.9907227,31.6489258,3.9819336  c0.1191406,0.0961914,0.3032227,0.4526367,0.1259766,1.3095703c-0.0102539,0.0498047-0.015625,0.1005859-0.015625,0.1518555  c0,0.2495117,0.0307617,2.3530273,1.0375977,3.534668l0.2333984,1.7294922  c-0.3525391,0.2553711-0.7749023,0.6831055-0.925293,1.3305664c-0.3148193,1.1671143-0.4832153,3.1087646,0.2495728,4.5229492  c-0.6208496-0.5899048-1.5361328-1.0704346-2.5640259-1.6000977c-0.2196045-0.112915-0.4268799-0.196167-0.6262817-0.2612305  c0.3695679-1.4517212-0.2396851-3.0351563-0.7693481-4.0353394c0.718811-0.071167,1.7463989-0.0893555,2.8824463,0.170105  c0.0561523,0.0126953,0.1123047,0.0185547,0.1674805,0.0185547c0.3422852,0,0.6513672-0.2353516,0.730957-0.5830078  c0.0917969-0.4042969-0.1606445-0.8061523-0.5644531-0.8984375C30.373291,9.0899658,29.244873,9.0848999,28.411377,9.1535645  L28.8100586,8.2319336z M31.3286133,28.2973633l-0.0009766-4.7709961c0-0.1523438-0.0463867-0.3012695-0.1333008-0.4267578  c-0.0268555-0.0385742-2.6748047-3.8950195-2.8051758-6.4663086c-0.0361328-0.21875-0.0151367-0.5229492-0.0068359-0.5693359  c0.0019531-0.0004883,0.1992188-0.0385742,0.7211914,0.2304688c2.4189453,1.2460938,2.7441406,1.5673828,2.4858398,2.4521484  c-0.1157227,0.3974609,0.112793,0.8139648,0.5102539,0.9301758c0.3964844,0.1118164,0.8134766-0.1123047,0.9301758-0.5102539  c0.210144-0.7210693,0.1489868-1.2915649-0.0782471-1.7843018c0.3361206,0.3285522,0.7605591,0.59021,1.2969971,0.7491455  c0.2543945,0.1079102,1.0205078,0.3637695,1.7041016-0.1176758c0.7021484-0.4941406,0.9516602-1.4995117,0.7626953-3.0742188  c-0.0043945-0.0366211-0.0117188-0.0732422-0.0214844-0.109375c-0.1459961-0.5322266-0.4306641-2.2485352,0.1567383-3.1230469  c0.2207031-0.3291016,0.5449219-0.5092773,1.0200195-0.5664063c0.1938477-0.0234375,0.3706055-0.121582,0.4936523-0.2729492  c0.4492188-0.5561523,0.9458008-1.5395508,0.9179688-2.6132813c0.4736328,0.6152344,0.7978516,1.5288086,0.6054688,2.8745117  c-0.0185547,0.1308594-0.0019531,0.2646484,0.0473633,0.3876953L40.2578125,12.3125v0.1351318  c-0.2301025-0.0597534-0.4850464-0.098999-0.7592773-0.098999c-0.4140625,0-0.75,0.3359375-0.75,0.75s0.3359375,0.75,0.75,0.75  c0.3049316,0,0.5700073,0.1008911,0.7592773,0.1971436v2.3218994c-0.1240234,0.09375-0.2431641,0.1503906-0.2978516,0.1508789  c-0.0004883,0-0.0424805-0.0195313-0.109375-0.1171875c-0.1855469-0.2700195-0.5258789-0.3881836-0.840332-0.2910156  c-0.3139648,0.097168-0.527832,0.3876953-0.527832,0.7163086c-0.0004883,1.3583984-0.3686523,2.5424805-0.6088867,2.5961914  c-0.3608398,0.0800781-0.6083984,0.4106445-0.5854492,0.7792969c0.0234375,0.3686523,0.3125,0.6655273,0.6801758,0.699707  c0.0273438,0.0024414,2.4575195,0.2631836,3.1020508,1.4926758c-0.7016602-0.4355469-2.246582-1.097168-5.1889648-1.1333008  c-0.4047852,0.0473633-1.6142578,0.0581055-2.340332-0.4545898c-0.0349121-0.0247803-0.0754395-0.0319214-0.112793-0.0498657  c-0.2174072-0.302124-0.6226807-0.4104614-0.9570313-0.2284546c-0.3637695,0.1977539-0.4980469,0.652832-0.3007813,1.0166016  c0.1508789,0.2788086,0.543457,1.1342773,0.543457,1.734375c0,0.1069336,0.0229492,0.2124023,0.0668945,0.3100586  c0.8496094,1.8720703,2.0561523,5.3579102,1.6777344,6.7426758c-0.1069336,0.3930664,0.1186523,0.7998047,0.5087891,0.9165039  c1.0664063,0.3187256,2.6762695,0.9020996,3.3778076,1.3354492c-0.0240479,1.1077881-0.1989136,2.534668-0.6051025,3.4678955  c-1.1385498-0.5927124-3.4636841-1.7971802-4.3586426-2.2174072C33.2949219,33.7988281,31.2705078,32.9042969,31.3286133,28.2973633  z M51.6333008,47.5460205c0.006897,0.0001831,0.0131226,0.0032959,0.0200195,0.0032959  c0.0082397,0,0.0167847-0.0031738,0.0250854-0.003418c1.1017456,0.0078125,2.1894531,0.1513062,3.1688232,0.4818115  c0.1661377,0.7512207,0.2376099,1.5209351,0.1820679,1.9703369c-1.5678711-0.2597656-5.5673828-0.847168-7.4941406-0.4160156  c-0.5438232-0.3431396-1.664978-0.9414063-2.7249756-0.9014893C45.7871094,48.3734131,48.7259521,47.5343018,51.6333008,47.5460205z   M43.5840454,68.9203491c1.4919434,0.336731,3.2206421,0.6109009,5.104187,0.7127686  c-0.1730957,1.2243652-0.4954224,4.2876587,0.2521973,6.3161011c-0.2809448,0.8163452-0.9667969,3.0597534-0.7949219,4.8934326  c-0.0322266,0.0106812-0.0658569,0.0101929-0.097168,0.0255127c-0.6341553,0.3116455-0.9920654,0.6924438-1.194397,1.0593262  c-0.2189941-0.164856-0.416626-0.348877-0.578064-0.562561c-0.0059204-0.0075684-0.0119019-0.0144653-0.0181274-0.0217896  c-1.5376587-2.0740967-0.5930176-6.0880737-0.5814819-6.1341553c0.0400391-0.1674805,0.0219727-0.34375-0.0517578-0.4995117  C44.5161133,72.3786621,43.8827515,70.1453247,43.5840454,68.9203491z M46.8178711,94.7958984  c-0.2246094-0.8969727,0.2089844-2.4394531,0.5683594-3.2705078c0.0249023-0.0576172,0.0429688-0.1186523,0.0527344-0.1806641  c0.1665039-1.0473633-0.296875-4.4912109-0.3945313-5.1904297c-0.1508789-0.9082031-1.5195313-2.4941406-2.2294922-3.265625  c-0.0214844-0.1166992-0.0078125-0.1713867-0.0029297-0.1772461c0.057312-0.0705566,0.2808228-0.1234741,0.5189209-0.1392212  c0.2764282,0.307251,0.5983887,0.5842285,0.9810791,0.8140259c0.1210938,0.0722656,0.2539063,0.1069336,0.3857422,0.1069336  c0.0050049,0,0.0093994-0.0036011,0.0144043-0.0037231c0.2768555,0.9561768,1.086792,1.7722168,1.4821777,2.1223755  c0.2661133,1.2485352,0.203125,4.6206055,0.0981445,6.6147461c-0.1948242,1.0910034-0.1890259,2.0197144,0.0023193,2.7912598  C47.798584,95.1835327,47.1526489,94.9494629,46.8178711,94.7958984z M53.4204102,75.0449219  c-0.0864258,0.1518555-0.1166992,0.3291016-0.0859375,0.5009766c0.4541016,2.5512695,0.6274414,5.6577148,0.1621094,6.2163086  c-0.0181885,0.0217896-0.0234985,0.0487061-0.0388184,0.0718384c-1.4230347,0.2974854-2.4215698,0.0124512-2.4450684,0.0053101  c-0.3945313-0.1298828-0.8139648,0.0878906-0.9418945,0.4799805c-0.1293945,0.3935547,0.0849609,0.8173828,0.4785156,0.9462891  c0.0712891,0.0239258,1.5795898,0.5014648,3.6538086-0.0595703c-0.0039063,0.3740234-0.1616211,0.8393555-0.7788086,1.1967773  c-0.1699219,0.0986328-0.2944336,0.2597656-0.347168,0.4492188c-0.3681641,1.3334961-1.5205078,5.7900391-0.8540039,7.2373047  c0.4731445,0.7739258,1.3227539,2.6333008,0.9301758,3.4394531c-0.0463867,0.0947266-0.1694336,0.3476563-0.8867188,0.4350586  c-0.012207,0.003418-1.315918,0.2744141-2.0473633-0.4238281c-0.7026367-0.6699219-0.6323242-2.0283203-0.4394531-3.1401367  c0.0322266-0.5878906,0.3037109-5.7915039-0.203125-7.4282227c-0.0444336-0.1435547-0.1318359-0.2714844-0.2490234-0.3652344  c-0.5234375-0.4179688-1.2714844-1.2792969-1.2143555-1.7983398c0.0229492-0.2104492,0.2236328-0.4101563,0.5961914-0.5932617  c0.001709-0.0008545,0.0026245-0.0025024,0.0043335-0.0033569c0.0990601,0.046875,0.2045898,0.0800171,0.3169556,0.0800171  c0.0751953,0,0.1513672-0.0112305,0.2270508-0.0351563c0.3945313-0.1254883,0.6132813-0.546875,0.487793-0.9418945  c-0.4560547-1.4360352,0.3505859-4.1821289,0.699707-5.1191406c0.0683594-0.184082,0.0625-0.3876953-0.0175781-0.5668945  c-0.7061768-1.5880737-0.4379272-4.5924072-0.2287598-5.949707c0.0072021,0,0.0140381,0.0004883,0.0212402,0.0004883  c1.6893311,0,3.4800415-0.1607056,5.3179321-0.5424194C55.1286011,70.6194458,54.2564087,73.5695801,53.4204102,75.0449219z   M39.3535767,66.0276489c1.1038208-2.4049683,2.1256714-5.4819946,2.4042358-9.0213013  c-0.0024414-0.137207-0.0126953-3.3798828,3.6069336-4.784668c0.3862305-0.1499023,0.5776367-0.5844727,0.4277344-0.9707031  s-0.5849609-0.5786133-0.9707031-0.4277344c-4.6264648,1.7954102-4.5683594,6.0390625-4.5615234,6.1401367  c-0.4799805,6.0615234-3.3994141,10.8349609-4.7197266,12.7124023c-2.4243164-3.5200195-6.6235352-3.8388672-8.4931641-3.7763672  c0.4414063-2.184082,2.5800781-3.0107422,2.6796875-3.0483398c4.7236328-1.737793,5.0869141-4.230957,5.1152344-4.5419922  c0.105957-2.1728516,2.0039063-3.6791992,2.0708008-3.734375c2.1865234-2.0092773,7.3515625-4.1499023,7.4033203-4.1713867  c0.0703125-0.0288086,0.1362305-0.0683594,0.1943359-0.1171875c0.4394531-0.3652344,1.7089844,0.1835938,2.4570313,0.7202148  c0.2016602,0.144043,0.4633789,0.1826172,0.6962891,0.0952148c1.0800781-0.395752,4.4266357-0.0523682,6.7944946,0.3233032  c1.3883667,1.4505615,1.8389282,4.8588257,1.8939819,6.0658569c0.0019531,0.0429688,0.0073242,0.0859375,0.0166016,0.1274414  c1.0249023,4.6533203,2.6821289,6.871582,2.7490234,6.9594727c0.2431641,0.324707,0.4443359,0.9262695,0.6074829,1.6613159  C50.867981,70.1244507,41.8544922,67.0401001,39.3535767,66.0276489z M68.5078125,67.2890625  c-1.684082,0.3022461-4.3842773,1.012207-6.7954102,2.6489258c-0.1210938-1.8837891-0.4599609-5.0126953-1.3955078-6.262207  c-0.0151367-0.0200195-1.5224609-2.0639648-2.4697266-6.3198242c-0.0283203-0.5039063-0.2397461-3.4594727-1.3754883-5.6435547  c1.6987305,1.1743164,5.1206055,3.9521484,7.3632813,8.5224609C63.9526367,60.456543,66.296875,64.8613281,68.5078125,67.2890625z   M72.6176758,55.5625c-0.012207,0.012207-1.2446289,1.2475586-3.1264648,1.1362305  c-1.5275879-0.0997925-3.0612183-1.0710449-4.5668335-2.8787842c-0.0977173-0.1585693-0.1571655-0.4155273,0.1288452-0.7310791  c0.2783203-0.3066406,0.2553711-0.7807617-0.0512695-1.059082c-0.3056641-0.2773438-0.7797852-0.2558594-1.059082,0.0512695  c-0.2296753,0.2529907-0.3742676,0.5117798-0.4681396,0.7678223c-0.5690308,0.0311279-1.8416748,0.1369019-2.7846069,0.4541626  c-1.8098755-1.8221436-3.453064-2.9169312-4.1656494-3.3493652c0.0340576-0.4169922,0.0153809-0.8495483-0.0343018-1.2565308  c0.2557373,0.0046387,0.5083618-0.1087036,0.6528931-0.3421631c0.123291-0.1993408,0.131958-0.4302368,0.0610962-0.6359253  c0.0012207-0.0031738,0.0036621-0.0054321,0.0048218-0.008606c0.7543945-2.0473633,0.6391602-6.4003906,0.6337891-6.5844727  c-0.0117188-0.4140625-0.3710938-0.7626953-0.7709961-0.7280273c-0.4140625,0.0117188-0.7402344,0.3569336-0.7280273,0.7709961  c0.0307617,1.0891724,0.0002441,4.0484619-0.4366455,5.6530151c-0.013916-0.0059204-0.0284424-0.010498-0.0424194-0.0162964  c-0.0221558-0.0130615-0.0480347-0.0168457-0.0714111-0.0275269c-1.1109619-0.4484253-2.3411255-0.6596069-3.5830078-0.7123413  c-1.2099609-3.6768188-4.7429199-8.6924438-4.9002075-8.9144287c-0.2397461-0.3383789-0.7070313-0.4174805-1.0454102-0.1782227  c-0.3378906,0.2392578-0.4179688,0.7075195-0.1782227,1.0454102c0.0352783,0.0500488,3.2611694,4.6295166,4.536377,8.0522461  c-2.8286743,0.1444092-5.4220581,0.9048462-6.326416,1.1972656c-3.9399414-2.3427734-5.3950195-8.2128906-5.7075195-9.7055664  c0.0353394-0.0446777,0.0628662-0.098938,0.0962524-0.1461182c0.0039063-0.006897,0.0118408-0.0093994,0.015564-0.0164795  c0.0021362-0.0041504,0.0016479-0.008728,0.0037231-0.0128784c0.8618164-1.2438965,1.0834351-3.2817993,1.1305542-4.4968872  c1.1933594,0.3110352,3.2182617,0.9335938,4.5913086,1.3745117c0.034668,0.0112305,0.0698242,0.0200195,0.105957,0.0258789  c0.0317383,0.0053711,3.230957,0.5810547,5.3417969,4.465332c0.1098633,0.2011719,0.3051758,0.3413086,0.53125,0.3803711  c0.2250977,0.0385742,0.4575195-0.0273438,0.6279297-0.1796875c0.8168945-0.730957,2.2861328-1.7895508,3.0419922-1.9204102  c0.1519165,0.0755005,0.4023438,0.2072144,0.7003784,0.3806763c-0.3119507,1.3964233-1.0366211,4.0214844-1.9503784,5.1281128  c-0.2636719,0.3193359-0.2182617,0.7919922,0.1010742,1.0561523c0.1396484,0.1152344,0.309082,0.1713867,0.4770508,0.1713867  c0.2163086,0,0.4306641-0.0927734,0.5791016-0.2724609c1.0452271-1.2664185,1.7687988-3.7446289,2.12323-5.1904297  c0.4974976,0.3881836,0.9904175,0.8477783,1.3699341,1.3637695l2.4692383,7.9365234l-0.3071289,0.375  c-0.1743164,0.2128906-0.2177734,0.5043945-0.1137695,0.7592773l0.5625,1.375  c0.1171875,0.2861328,0.3808594,0.4765625,0.7080078,0.4658203c1.1220703-0.0332031,3.1826172,0.1894531,3.980957,0.8359375  c0.3100586,0.2519531,0.7636719,0.2158203,1.0302734-0.0825195c0.0327148-0.0375977,0.7338867-0.8061523,1.6000977-0.4907227  c0.0043945,0.3305664,0.2250977,0.6201172,0.5439453,0.7114258c1.9077148,0.5454102,4.737793,1.8393555,5.0551758,3.0073242  C73.0390625,54.6918945,73.1298828,55.0249023,72.6176758,55.5625z"/><path d="M45.4375,39.2890625c-0.4033203-0.0839844-0.8027344,0.1713867-0.8901367,0.5761719  c-0.0825195,0.3847656-0.7807617,3.8061523,0.0625,5.4926758c0.1313477,0.2626953,0.3964844,0.4145508,0.6713867,0.4145508  c0.112793,0,0.2270508-0.0253906,0.3349609-0.0791016c0.3706055-0.1855469,0.5205078-0.6357422,0.3354492-1.0063477  c-0.4594727-0.918457-0.2055664-3.2524414,0.0625-4.5078125C46.1005859,39.7744141,45.8427734,39.3759766,45.4375,39.2890625z"/><path d="M44.625,36.6674805c0.2519531-0.3271484,0.1918945-0.796875-0.1347656-1.050293  c-0.3276367-0.253418-0.7983398-0.1948242-1.0522461,0.1333008c-0.1074219,0.1386719-2.6157227,3.4433594-1.0449219,7.5405273  c0.1142578,0.2983398,0.3989258,0.4814453,0.7001953,0.4814453c0.0893555,0,0.1801758-0.015625,0.2685547-0.0498047  c0.3867188-0.1479492,0.5800781-0.5820313,0.4316406-0.96875C42.53125,39.4614258,44.5390625,36.7802734,44.625,36.6674805z"/><path d="M51.9516602,53.4355469c-0.3823242-0.1640625-0.8217773,0.0107422-0.9863281,0.390625  c-0.7363281,1.7021484-2.2719727,4.6655273-3.3237305,5.4243164c-0.0349121,0.0315552-0.2833252,0.2631226-0.6057739,0.6619263  c-1.2929688-3.7282104,0.5215454-6.9135132,0.5413208-6.9475708c0.2094727-0.355957,0.0913086-0.8149414-0.2646484-1.0253906  c-0.3544922-0.2104492-0.8154297-0.0922852-1.0273438,0.2636719c-0.1015625,0.171875-2.4658203,4.2631836-0.3525391,9.0029297  c0.0349731,0.0783081,0.0838013,0.1450806,0.1393433,0.2043457c-0.6342163,1.2584229-1.1210327,3.0159302-0.6627808,5.1560059  c0.0751953,0.3520508,0.3867188,0.5927734,0.7324219,0.5927734c0.0522461,0,0.1049805-0.0053711,0.1582031-0.0166016  c0.4047852-0.0869141,0.6630859-0.4853516,0.5761719-0.890625c-0.7563477-3.53125,1.6679688-5.793457,1.7045898-5.8339844  c1.6464844-1.1801758,3.550293-5.5068359,3.7617188-5.9960938C52.5063477,54.0415039,52.331543,53.6000977,51.9516602,53.4355469z"/><path d="M54.1674805,55.9985352c-0.4086914-0.0439453-0.7861328,0.2387695-0.8388672,0.6494141  c-0.2714844,2.1376953-1.2148438,5.8681641-2.5908203,6.7788086c-0.3452148,0.2285156-0.4399414,0.6938477-0.2114258,1.0395508  c0.1445313,0.2177734,0.3828125,0.3359375,0.6259766,0.3359375c0.1425781,0,0.2861328-0.0400391,0.4135742-0.1245117  c2.3930664-1.5839844,3.1699219-7.2050781,3.2509766-7.840332C54.8691406,56.4262695,54.578125,56.0507813,54.1674805,55.9985352z"/></svg>