<svg width="1200" height="80" xmlns="http://www.w3.org/2000/svg">
  <!-- Base structure -->
  <g stroke="#1E3A8A" fill="none">
    <rect x="0" y="0" width="1200" height="20" stroke-width="0.5" />
    <rect x="20" y="20" width="1160" height="15" stroke-width="0.5" />
    <rect x="40" y="35" width="1120" height="25" stroke-width="0.5" />
    <rect x="0" y="60" width="1200" height="20" stroke-width="1" />
    
    <!-- Decorative elements -->
    <line x1="0" y1="10" x2="1200" y2="10" stroke-width="0.3" stroke-dasharray="10,5" />
    <line x1="20" y1="27.5" x2="1180" y2="27.5" stroke-width="0.3" stroke-dasharray="8,4" />
    <line x1="40" y1="47.5" x2="1160" y2="47.5" stroke-width="0.3" stroke-dasharray="6,3" />
    <line x1="0" y1="70" x2="1200" y2="70" stroke-width="0.3" stroke-dasharray="12,6" />
  </g>
  
  <!-- Measurements -->
  <g stroke="#1E3A8A" fill="none" stroke-width="0.2">
    <line x1="0" y1="0" x2="0" y2="80" />
    <line x1="1200" y1="0" x2="1200" y2="80" />
    
    <line x1="0" y1="0" x2="3" y2="0" />
    <line x1="0" y1="20" x2="3" y2="20" />
    <line x1="0" y1="60" x2="3" y2="60" />
    <line x1="0" y1="80" x2="3" y2="80" />
    
    <line x1="1200" y1="0" x2="1197" y2="0" />
    <line x1="1200" y1="20" x2="1197" y2="20" />
    <line x1="1200" y1="60" x2="1197" y2="60" />
    <line x1="1200" y1="80" x2="1197" y2="80" />
    
    <text x="5" y="10" font-family="monospace" font-size="5" fill="#1E3A8A">20</text>
    <text x="5" y="40" font-family="monospace" font-size="5" fill="#1E3A8A">40</text>
    <text x="5" y="70" font-family="monospace" font-size="5" fill="#1E3A8A">20</text>
  </g>
</svg> 